<svg xmlns="http://www.w3.org/2000/svg" viewBox="0 0 171.83 166.83"><defs><style>.cls-1{opacity:0.42;}.cls-2{fill:#18cae6;}</style></defs><title>Asset 4</title><g id="Layer_2" data-name="Layer 2"><g id="Layer_1-2" data-name="Layer 1"><g class="cls-1"><path class="cls-2" d="M81.41,166.33a80.91,80.91,0,0,1-55.32-140,10.08,10.08,0,0,0,1.32,2.67L39.27,46.2A58.29,58.29,0,0,0,104,139.86l12.69,18.36A80,80,0,0,1,81.41,166.33Z"/><path d="M25.88,27.27A10.89,10.89,0,0,0,27,29.34L38.63,46.16a58.79,58.79,0,0,0,65.21,94.32L116,158a79.7,79.7,0,0,1-34.56,7.8A80.41,80.41,0,0,1,25.88,27.27m.47-1.81a81.41,81.41,0,0,0,91.1,133L104.2,139.25a57.78,57.78,0,0,1-64.29-93L27.82,28.77a10.07,10.07,0,0,1-1.47-3.31Z"/></g><g class="cls-1"><path class="cls-2" d="M130.58,124.62a58.26,58.26,0,0,0,16.12-25.8L166.11,110a81.24,81.24,0,0,1-23,32.74Z"/><path d="M147,99.57l18.5,10.68A80.82,80.82,0,0,1,143.23,142l-12-17.34A58.75,58.75,0,0,0,147,99.57m-.59-1.5a57.81,57.81,0,0,1-16.47,26.48l13.1,19a81.57,81.57,0,0,0,23.7-33.7L146.4,98.07Z"/></g><g class="cls-1"><path class="cls-2" d="M148.89,75.84A58.28,58.28,0,0,0,65,29.72L53.55,13.2a10.21,10.21,0,0,0-2.45-2.5A80.91,80.91,0,0,1,171.33,81.41c0,2.35-.11,4.77-.33,7.2Z"/><path d="M90.41,1a80.51,80.51,0,0,1,80.42,80.41c0,2.09-.09,4.22-.26,6.37L149.36,75.53A58.78,58.78,0,0,0,65.14,29.08L54,12.92a10.51,10.51,0,0,0-2-2.15A80.39,80.39,0,0,1,90.41,1m0-1A81,81,0,0,0,50.15,10.66a9.93,9.93,0,0,1,3,2.83L64.81,30.36a57.78,57.78,0,0,1,83.61,45.79l23,13.28c.26-2.64.4-5.31.4-8A81.41,81.41,0,0,0,90.41,0Z"/></g></g></g></svg>