<svg height="464pt" viewBox="-56 0 464 464" width="464pt" xmlns="http://www.w3.org/2000/svg"><path d="m297 96h-33v-48h-176v48h-33c-30.375 0-55 17.910156-55 40v312c0 8.800781 9.847656 16 22 16h308c12.152344 0 22-7.199219 22-16v-312c0-22.089844-24.625-40-55-40zm0 0" fill="#87cee9"/><path d="m56 176h240c13.253906 0 24 10.746094 24 24v160c0 13.253906-10.746094 24-24 24h-240c-13.253906 0-24-10.746094-24-24v-160c0-13.253906 10.746094-24 24-24zm0 0" fill="#2d75bb"/><path d="m88 0h176c8.835938 0 16 7.164062 16 16v16c0 8.835938-7.164062 16-16 16h-176c-8.835938 0-16-7.164062-16-16v-16c0-8.835938 7.164062-16 16-16zm0 0" fill="#2d75bb"/><path d="m128 304h-16v-16c0-4.417969-3.582031-8-8-8s-8 3.582031-8 8v16h-16c-4.417969 0-8 3.582031-8 8s3.582031 8 8 8h16v16c0 4.417969 3.582031 8 8 8s8-3.582031 8-8v-16h16c4.417969 0 8-3.582031 8-8s-3.582031-8-8-8zm0 0" fill="#fff"/><path d="m272 280c0 30.929688-25.070312 56-56 56s-56-25.070312-56-56 25.070312-56 56-56 56 25.070312 56 56zm0 0" fill="#fff"/><path d="m208 216h16v128h-16zm0 0" fill="#2d75bb"/><path d="m320 424h-80c-4.417969 0-8-3.582031-8-8s3.582031-8 8-8h80c4.417969 0 8 3.582031 8 8s-3.582031 8-8 8zm0 0" fill="#fff"/><path d="m208 424h-16c-4.417969 0-8-3.582031-8-8s3.582031-8 8-8h16c4.417969 0 8 3.582031 8 8s-3.582031 8-8 8zm0 0" fill="#fff"/><g fill="#bbeaf9"><path d="m104 0h48v48h-48zm0 0"/><path d="m200 0h48v48h-48zm0 0"/></g></svg>